<?xml version="1.0" standalone="no"?>
<!DOCTYPE svg PUBLIC "-//W3C//DTD SVG 20010904//EN"
 "http://www.w3.org/TR/2001/REC-SVG-20010904/DTD/svg10.dtd">
<svg version="1.0" xmlns="http://www.w3.org/2000/svg"
 width="512.000000pt" height="512.000000pt" viewBox="0 0 512.000000 512.000000"
 preserveAspectRatio="xMidYMid meet">
<metadata>
Created by potrace 1.11, written by Peter Selinger 2001-2013
</metadata>
<g transform="translate(0.000000,512.000000) scale(0.100000,-0.100000)"
fill="#000000" stroke="none">
<path d="M2370 5029 c-239 -31 -386 -64 -536 -122 -278 -107 -538 -286 -725
-500 -191 -218 -312 -455 -381 -747 -20 -85 -22 -121 -22 -350 0 -238 2 -263
27 -382 46 -219 108 -386 213 -576 146 -267 298 -444 725 -848 155 -147 375
-409 455 -541 l33 -56 0 -334 c0 -375 -2 -363 73 -406 92 -53 140 -62 323 -62
179 0 230 8 315 51 25 12 56 34 70 49 l25 27 0 341 c0 393 -11 342 114 512
141 190 323 386 580 626 432 402 662 804 741 1297 50 308 33 565 -56 831 -180
541 -670 981 -1264 1133 -228 58 -520 82 -710 57z m338 -196 c147 -55 272
-132 360 -223 69 -71 113 -141 149 -240 26 -71 28 -85 28 -245 0 -148 -3 -180
-23 -250 -45 -154 -126 -268 -246 -344 -100 -63 -203 -101 -471 -176 -224 -62
-304 -97 -464 -204 -217 -144 -374 -343 -443 -561 -20 -66 -23 -94 -23 -235 1
-134 5 -174 23 -243 31 -115 72 -216 145 -354 33 -65 58 -121 54 -124 -9 -9
-216 189 -278 266 -229 286 -322 571 -279 860 17 111 66 275 108 358 127 256
419 468 994 725 187 84 231 111 305 189 94 100 137 217 137 373 0 167 -47 287
-155 397 l-66 68 41 -7 c23 -3 69 -17 104 -30z m1207 -2544 c-57 -59 -202
-182 -335 -284 -264 -204 -499 -397 -556 -456 -108 -115 -196 -266 -244 -423
l-24 -77 -50 3 -51 3 3 55 c6 93 48 234 98 330 78 152 211 279 464 443 163
106 714 445 725 446 5 1 -9 -17 -30 -40z m-1427 -1507 c3 -131 6 -127 -113
-133 l-70 -4 -3 114 c-2 76 1 118 9 127 9 11 32 14 93 12 l81 -3 3 -113z m330
-6 c1 -66 -1 -123 -5 -127 -13 -12 -164 7 -174 22 -14 22 -11 203 3 217 9 9
39 12 93 10 l80 -3 3 -119z"/>
</g>
</svg>
